<svg height="512" viewBox="0 0 512 512" width="512" xmlns="http://www.w3.org/2000/svg"><g id="Outline"><path d="m277.49 378.5a31.986 31.986 0 0 1 -22.628-54.613l35.883-35.887h-242.745a32 32 0 0 1 0-64h242.745l-35.883-35.882a32 32 0 0 1 45.255-45.255l90.511 90.51a32 32 0 0 1 0 45.255l-90.509 90.509a31.9 31.9 0 0 1 -22.629 9.363zm-11.313-43.3a16 16 0 1 0 22.628 22.627l90.508-90.509a16 16 0 0 0 0-22.628l-90.513-90.513a16 16 0 1 0 -22.623 22.623l49.539 49.539a8 8 0 0 1 -5.657 13.661h-262.059a16 16 0 0 0 0 32h262.059a8 8 0 0 1 5.657 13.657z"/><path d="m448 496h-224a48.054 48.054 0 0 1 -48-48v-32a32 32 0 0 1 64 0v16h192v-352h-192v16a32 32 0 0 1 -64 0v-32a48.054 48.054 0 0 1 48-48h224a48.054 48.054 0 0 1 48 48v384a48.054 48.054 0 0 1 -48 48zm-240-96a16.019 16.019 0 0 0 -16 16v32a32.036 32.036 0 0 0 32 32h224a32.036 32.036 0 0 0 32-32v-384a32.036 32.036 0 0 0 -32-32h-224a32.036 32.036 0 0 0 -32 32v32a16 16 0 0 0 32 0v-24a8 8 0 0 1 8-8h208a8 8 0 0 1 8 8v368a8 8 0 0 1 -8 8h-208a8 8 0 0 1 -8-8v-24a16.019 16.019 0 0 0 -16-16z"/></g></svg>