<?xml version="1.0"?>
<svg xmlns="http://www.w3.org/2000/svg" xmlns:xlink="http://www.w3.org/1999/xlink" xmlns:svgjs="http://svgjs.com/svgjs" version="1.1" width="512" height="512" x="0" y="0" viewBox="0 0 512 512" style="enable-background:new 0 0 512 512" xml:space="preserve" class=""><g>
<g xmlns="http://www.w3.org/2000/svg">
	<g>
		<path d="M507.726,146.33L260.317,1.177c-2.662-1.57-5.972-1.57-8.634,0L4.274,146.33c-2.611,1.527-4.214,4.445-4.214,7.473    s1.604,5.827,4.223,7.363l247.409,145.033c1.322,0.776,2.815,1.169,4.308,1.169c1.493,0,2.977-0.392,4.317-1.177l247.409-145.033    c2.611-1.527,4.214-4.445,4.214-7.473S510.336,147.857,507.726,146.33z M256,288.94L25.355,153.735L256,18.419l230.645,135.316    L256,288.94z" fill="#edf5f3" data-original="#000000" style="" class=""/>
	</g>
</g>
<g xmlns="http://www.w3.org/2000/svg">
	<g>
		<path d="M409.001,204.198L157.386,61.443c-2.653-1.51-5.904-1.484-8.531,0.06L106.36,86.431c-2.628,1.544-4.232,4.377-4.214,7.422    c0.017,3.046,1.664,5.853,4.317,7.354l251.606,142.746c1.305,0.742,2.756,1.109,4.206,1.109c1.493,0,2.986-0.392,4.317-1.16    l42.512-24.92c2.628-1.544,4.232-4.377,4.214-7.422C413.301,208.506,411.654,205.699,409.001,204.198z M362.207,226.678    L127.757,93.657l25.5-14.964l234.458,133.029L362.207,226.678z" fill="#edf5f3" data-original="#000000" style="" class=""/>
	</g>
</g>
<g xmlns="http://www.w3.org/2000/svg">
	<g>
		<path d="M409.214,204.112c-2.653-1.519-5.921-1.51-8.565,0.034l-42.708,25.039c-2.611,1.527-4.214,4.325-4.214,7.345    l-0.119,59.754c-0.009,3.003,1.57,5.784,4.146,7.328c1.348,0.819,2.867,1.22,4.385,1.22c1.382,0,2.764-0.341,4.027-1.015    l42.708-22.924c2.764-1.484,4.496-4.36,4.496-7.499l0.128-61.869C413.497,208.463,411.868,205.639,409.214,204.112z     M396.315,268.268l-25.62,13.753l0.077-40.584l25.628-15.024L396.315,268.268z" fill="#edf5f3" data-original="#000000" style="" class=""/>
	</g>
</g>
<g xmlns="http://www.w3.org/2000/svg">
	<g>
		<path d="M345.553,362.932c-2.645-1.519-5.904-1.501-8.548,0.043l-51.188,30.005c-2.619,1.536-4.223,4.334-4.223,7.363v44.969    c0,3.063,1.638,5.887,4.291,7.405c1.314,0.751,2.781,1.126,4.24,1.126c1.493,0,2.977-0.392,4.317-1.16l51.188-30.013    c2.611-1.536,4.214-4.334,4.214-7.362v-44.969C349.845,367.274,348.207,364.45,345.553,362.932z M332.782,410.409l-34.125,20.006    v-25.193l34.125-20.006V410.409z" fill="#edf5f3" data-original="#000000" style="" class=""/>
	</g>
</g>
<g xmlns="http://www.w3.org/2000/svg">
	<g>
		<path d="M260.317,291.354L12.908,146.321c-2.636-1.536-5.904-1.57-8.557-0.043c-2.653,1.527-4.291,4.351-4.291,7.405v204.752    c0,3.029,1.604,5.827,4.223,7.363l247.409,145.033c1.322,0.776,2.815,1.169,4.308,1.169c1.467,0,2.926-0.375,4.24-1.126    c2.653-1.527,4.291-4.351,4.291-7.405V298.716C264.531,295.688,262.927,292.89,260.317,291.354z M247.469,488.573L17.122,353.547    V168.571l230.346,135.026V488.573z" fill="#edf5f3" data-original="#000000" style="" class=""/>
	</g>
</g>
<g xmlns="http://www.w3.org/2000/svg">
	<g>
		<path d="M507.649,146.278c-2.645-1.519-5.904-1.493-8.548,0.043L251.692,291.354c-2.619,1.536-4.223,4.334-4.223,7.363v204.752    c0,3.063,1.638,5.887,4.291,7.405c1.314,0.751,2.781,1.126,4.24,1.126c1.493,0,2.977-0.392,4.317-1.169l247.409-145.033    c2.611-1.536,4.214-4.334,4.214-7.363V153.684C511.94,150.621,510.302,147.797,507.649,146.278z M494.878,353.556L264.531,488.581    V303.605l230.346-135.026V353.556z" fill="#edf5f3" data-original="#000000" style="" class=""/>
	</g>
</g>
<g xmlns="http://www.w3.org/2000/svg">
</g>
<g xmlns="http://www.w3.org/2000/svg">
</g>
<g xmlns="http://www.w3.org/2000/svg">
</g>
<g xmlns="http://www.w3.org/2000/svg">
</g>
<g xmlns="http://www.w3.org/2000/svg">
</g>
<g xmlns="http://www.w3.org/2000/svg">
</g>
<g xmlns="http://www.w3.org/2000/svg">
</g>
<g xmlns="http://www.w3.org/2000/svg">
</g>
<g xmlns="http://www.w3.org/2000/svg">
</g>
<g xmlns="http://www.w3.org/2000/svg">
</g>
<g xmlns="http://www.w3.org/2000/svg">
</g>
<g xmlns="http://www.w3.org/2000/svg">
</g>
<g xmlns="http://www.w3.org/2000/svg">
</g>
<g xmlns="http://www.w3.org/2000/svg">
</g>
<g xmlns="http://www.w3.org/2000/svg">
</g>
</g></svg>
